<svg width="16" height="16" viewBox="0 0 16 16" fill="none" xmlns="http://www.w3.org/2000/svg">
<path d="M2.42296 15.0807C2.00199 15.0807 1.64567 14.9349 1.354 14.6432C1.06234 14.3516 0.916504 13.9952 0.916504 13.5743V2.42052C0.916504 1.99955 1.06234 1.64323 1.354 1.35156C1.64567 1.0599 2.00199 0.914062 2.42296 0.914062H13.5767C13.9977 0.914062 14.354 1.0599 14.6457 1.35156C14.9373 1.64323 15.0832 1.99955 15.0832 2.42052V13.5743C15.0832 13.9952 14.9373 14.3516 14.6457 14.6432C14.354 14.9349 13.9977 15.0807 13.5767 15.0807H2.42296ZM2.42296 13.8307H13.5767C13.6409 13.8307 13.6996 13.804 13.753 13.7505C13.8064 13.6972 13.8332 13.6384 13.8332 13.5743V2.42052C13.8332 2.35635 13.8064 2.2976 13.753 2.24427C13.6996 2.1908 13.6409 2.16406 13.5767 2.16406H2.42296C2.3588 2.16406 2.30005 2.1908 2.24671 2.24427C2.19324 2.2976 2.1665 2.35635 2.1665 2.42052V13.5743C2.1665 13.6384 2.19324 13.6972 2.24671 13.7505C2.30005 13.804 2.3588 13.8307 2.42296 13.8307Z" fill="#777F90"/>
</svg>
