<svg width="16" height="16" viewBox="0 0 16 16" fill="none" xmlns="http://www.w3.org/2000/svg">
<path d="M6.83317 11.2089L12.4357 5.60635L11.5575 4.72823L6.83317 9.4526L4.45817 7.0776L3.58005 7.95573L6.83317 11.2089ZM2.42296 15.0807C2.00199 15.0807 1.64567 14.9349 1.354 14.6432C1.06234 14.3516 0.916504 13.9952 0.916504 13.5743V2.42052C0.916504 1.99955 1.06234 1.64323 1.354 1.35156C1.64567 1.0599 2.00199 0.914062 2.42296 0.914062H13.5767C13.9977 0.914062 14.354 1.0599 14.6457 1.35156C14.9373 1.64323 15.0832 1.99955 15.0832 2.42052V13.5743C15.0832 13.9952 14.9373 14.3516 14.6457 14.6432C14.354 14.9349 13.9977 15.0807 13.5767 15.0807H2.42296Z" fill="#2F4E72"/>
</svg>
